<?xml version="1.0" encoding="UTF-8" standalone="no"?>
<svg width="76px" height="89px" viewBox="0 0 76 89" version="1.1" xmlns="http://www.w3.org/2000/svg" xmlns:xlink="http://www.w3.org/1999/xlink">
    <!-- Generator: Sketch 41.2 (35397) - http://www.bohemiancoding.com/sketch -->
    <title>Group 12</title>
    <desc>Created with Sketch.</desc>
    <defs>
        <path d="M64.2123391,19.0003011 L60.4195207,19.0003011 C59.8506056,19.0003011 59.3865768,19.4757183 59.3865768,20.0633073 C59.3865768,20.6508964 59.8506056,21.1263136 60.4195207,21.1263136 L64.2123391,21.1263136 C64.7852912,21.1263136 65.245283,20.6509748 65.245283,20.0633073 C65.245283,19.4757183 64.7853674,19.0003011 64.2123391,19.0003011 Z M57.5456956,28.272544 C57.142146,27.857328 56.4885296,27.857328 56.0850561,28.272544 C55.6815826,28.6857219 55.6815826,29.3604773 56.0850561,29.7756933 L58.7652565,32.5349162 C58.9669552,32.742485 59.2292853,32.8463478 59.4955763,32.8463478 C59.7578303,32.8463478 60.0241212,32.7425634 60.2258961,32.5349162 C60.6293696,32.1196218 60.6293696,31.4469828 60.2258961,31.0316884 L57.5456956,28.272544 Z M48.1079807,31.6711697 C47.5390656,31.6711697 47.0750368,32.1465869 47.0750368,32.734176 L47.0750368,36.6374573 C47.0750368,37.2249679 47.5390656,37.7004635 48.1079807,37.7004635 C48.6809329,37.7004635 49.1409246,37.2250463 49.1409246,36.6374573 L49.1409246,32.734176 C49.1409246,32.1465869 48.6809329,31.6711697 48.1079807,31.6711697 Z M48.1079807,8.45544496 C48.6809329,8.45544496 49.1409246,7.98002773 49.1409246,7.39243869 L49.1409246,3.48923579 C49.1409246,2.90164674 48.6809329,2.42622951 48.1079807,2.42622951 C47.5390656,2.42622951 47.0750368,2.90164674 47.0750368,3.48923579 L47.0750368,7.39243869 C47.0750368,7.98002773 47.5390656,8.45544496 48.1079807,8.45544496 Z M56.8152997,12.1655807 C57.0796864,12.1655807 57.3438446,12.0617963 57.5456956,11.8541491 L60.2258961,9.09492621 C60.6293696,8.67971021 60.6293696,8.0049548 60.2258961,7.59177686 C59.8224226,7.17656086 59.164693,7.17656086 58.7652565,7.59177686 L56.0850561,10.3509997 C55.6815826,10.7662157 55.6815826,11.4409711 56.0850561,11.8541491 C56.2867547,12.0617179 56.5510653,12.1655807 56.8152997,12.1655807 Z M10.754717,39.1560744 C10.754717,38.5628614 11.2273074,38.0819672 11.819434,38.0819672 C12.4074609,38.0819672 12.884151,38.5585885 12.884151,39.1520001 L12.884151,59.8316064 C12.884151,60.4225693 12.4115605,60.9016393 11.819434,60.9016393 C11.231407,60.9016393 10.754717,60.4196543 10.754717,59.8380582 L10.754717,51.9368676 L10.754717,48.8727027 L10.754717,39.1560744 Z M3.58490566,39.1520001 C3.58490566,38.5610373 4.05749608,38.0819672 4.64962265,38.0819672 C5.23764961,38.0819672 5.71433964,38.5585885 5.71433964,39.1520001 L5.71433964,59.8316064 C5.71433964,60.4225693 5.24174922,60.9016393 4.64962265,60.9016393 C4.06159569,60.9016393 3.58490566,60.4250181 3.58490566,59.8316064 L3.58490566,39.1520001 Z" id="path-1"></path>
    </defs>
    <g id="Page-1" stroke="none" stroke-width="1" fill="none" fill-rule="evenodd">
        <g id="Group-12" transform="translate(0.000000, 1.000000)">
            <g id="Group-2" transform="translate(20.075472, 13.122951)" stroke="#000000" stroke-width="3.9690001">
                <path d="M2.86792453,14.2622951 L2.86792453,6.11241218" id="Layer-1"></path>
                <ellipse id="Layer-2" cx="3.22641509" cy="3.05620609" rx="3.22641509" ry="3.05620609"></ellipse>
            </g>
            <g id="Shape" transform="translate(34.415094, 31.663934) rotate(-90.000000) translate(-34.415094, -31.663934) ">
                <use stroke="#000000" stroke-width="1" fill="#000000" fill-rule="evenodd" xlink:href="#path-1"></use>
                <use stroke="#000000" stroke-width="1" xlink:href="#path-1"></use>
                <use stroke="#000000" stroke-width="1" xlink:href="#path-1"></use>
                <use stroke="#000000" stroke-width="2" xlink:href="#path-1"></use>
                <use xlink:href="#path-1"></use>
            </g>
            <path d="M55.9943256,80.9653719 L55.3536279,75.6163856 L55.3583411,75.6158003 C55.2437519,74.6623591 55.8832713,73.765106 56.8474109,73.5696184 C64.318093,72.0393717 68.8945891,68.2598467 70.8417209,63.871325 C71.7884806,61.7376419 72.1172248,59.4509049 71.8571163,57.2124545 C71.5946512,54.957616 70.7392093,52.7478449 69.3193643,50.7856525 C66.2054264,46.4819982 60.3737519,43.3322477 52.0926977,43.3322477 C42.9429457,43.3322477 37.0697364,46.964279 34.2768837,51.7294363 C33.1127287,53.7156257 32.4758605,55.897888 32.3556744,58.0886371 C32.2348992,60.2896288 32.6287442,62.5032043 33.5260155,64.5388509 C35.5685891,69.1734879 40.2537829,72.9219925 47.4575814,73.6120521 C47.8891318,73.6325373 48.3156744,73.8002236 48.6547287,74.1171593 L55.9943256,80.9653719 L55.9943256,80.9653719 Z M45.7007442,38.1843093 C45.7649612,38.3192191 45.8115039,38.4582261 45.8409612,38.5984036 C44.5949147,38.8234485 43.3665426,39.1234108 42.1679225,39.5041434 C40.7866667,36.7415638 38.525814,34.2924081 35.3644496,32.5777943 C32.3933798,30.966192 28.6084031,29.9925583 23.9818295,29.9925583 C15.7850233,29.9925583 9.9515814,33.3140921 6.79581395,37.8504 C5.32648062,39.9630126 4.43303876,42.3445669 4.15172093,44.77353 C3.87217054,47.1928357 4.19826357,49.6519413 5.16534884,51.9325327 C7.11837209,56.5384905 11.7072403,60.4775076 19.2271163,62.0177043 C20.1912558,62.2128993 20.8304806,63.110445 20.716186,64.0635935 L20.7208992,64.0644715 L20.0804961,69.4134578 L27.3921085,62.5907055 C27.6607597,63.9602894 28.0755194,65.2897809 28.627845,66.5592799 L18.9608217,75.5803901 C18.5663876,75.9889241 17.9904961,76.2154322 17.3813178,76.1440266 C16.3494264,76.0228711 15.6112248,75.0928416 15.7331783,74.0679948 L16.7851008,65.2792456 C8.89347287,63.2225285 3.952,58.6733441 1.70705426,53.3793753 C0.479565891,50.4851049 0.063627907,47.382763 0.413875969,44.3494857 C0.764124031,41.3252804 1.87613953,38.3604823 3.70544186,35.7304713 C7.51310078,30.257403 14.4128992,26.2499067 23.9818295,26.2499067 C29.2605891,26.2499067 33.6509147,27.3994207 37.1592868,29.3027913 C41.1725581,31.479786 44.0107752,34.6318777 45.7007442,38.1843093 L45.7007442,38.1843093 Z M59.2891318,76.832623 L60.3410543,85.6199089 C60.4630078,86.6450483 59.7251008,87.5750778 58.6932093,87.6962333 C58.084031,87.7673463 57.507845,87.5414235 57.1134109,87.1325968 L46.5367442,77.2628128 C38.1195969,76.2815703 32.5774884,71.6905375 30.0824496,66.0292977 C28.9489302,63.4569381 28.4508062,60.6671423 28.6028062,57.8984171 C28.7556899,55.1191566 29.5581085,52.3595034 31.0247907,49.8576715 C34.4400775,44.0305014 41.4132248,39.5893034 52.0926977,39.5893034 C61.7128837,39.5893034 68.5976589,43.4001416 72.3649612,48.6069019 C74.1715814,51.1037588 75.2609147,53.916381 75.5946667,56.787825 C75.930186,59.6753645 75.506,62.6243598 74.2849922,65.3766968 C72.0400465,70.4359634 67.1144806,74.8078042 59.2891318,76.832623 L59.2891318,76.832623 Z" id="Shape" fill="#000000"></path>
        </g>
    </g>
</svg>